<svg id="Capa_1" enable-background="new 0 0 512 512" height="512" viewBox="0 0 512 512" width="512" xmlns="http://www.w3.org/2000/svg"><g><g><g><path d="m136.88 198.288h-129.356c-4.156 0-7.524-3.368-7.524-7.524s3.368-7.524 7.524-7.524h129.356c19.897 0 36.085-16.187 36.085-36.084s-16.188-36.084-36.085-36.084-36.084 16.187-36.084 36.084c0 4.156-3.368 7.524-7.524 7.524s-7.524-3.368-7.524-7.524c0-28.194 22.938-51.132 51.132-51.132 28.195 0 51.133 22.938 51.133 51.132s-22.938 51.132-51.133 51.132z" fill="#b3dafe"/></g><g><path d="m124.339 344.852c-28.194 0-51.132-22.938-51.132-51.132 0-4.156 3.368-7.524 7.524-7.524s7.524 3.368 7.524 7.524c0 19.897 16.187 36.084 36.084 36.084s36.084-16.187 36.084-36.084-16.187-36.085-36.084-36.085h-116.815c-4.156 0-7.524-3.368-7.524-7.524s3.368-7.524 7.524-7.524h116.815c28.194 0 51.132 22.938 51.132 51.133 0 28.194-22.938 51.132-51.132 51.132z" fill="#b3dafe"/></g><g><path d="m243.937 314.877c-28.194 0-51.132-22.938-51.132-51.132 0-4.156 3.368-7.524 7.524-7.524s7.524 3.368 7.524 7.524c0 19.897 16.187 36.084 36.084 36.084s36.085-16.187 36.085-36.084-16.188-36.084-36.085-36.084h-236.413c-4.156 0-7.524-3.368-7.524-7.524s3.368-7.524 7.524-7.524h236.412c28.195 0 51.133 22.938 51.133 51.132.001 28.194-22.937 51.132-51.132 51.132z" fill="#b3dafe"/></g><g><path d="m314.78 247.243c-3.113 0-6.023-1.946-7.105-5.05-9.152-26.26-33.999-43.905-61.828-43.905-4.156 0-7.524-3.368-7.524-7.524s3.368-7.524 7.524-7.524c34.223 0 64.781 21.702 76.037 54.001 1.368 3.925-.704 8.214-4.629 9.582-.819.285-1.654.42-2.475.42z" fill="#b3dafe"/></g><g><path d="m245.847 198.288h-47.807c-4.156 0-7.524-3.368-7.524-7.524s3.368-7.524 7.524-7.524h47.807c4.156 0 7.524 3.368 7.524 7.524s-3.368 7.524-7.524 7.524z" fill="#b3dafe"/></g><g><circle cx="319.268" cy="265.339" fill="#b3dafe" r="7.524"/></g></g><g fill="#8ac9fe"><path d="m415.456 118.467-6.668-3.994 2.209-.554c4.031-1.011 6.479-5.097 5.468-9.128-1.011-4.032-5.104-6.485-9.128-5.468l-16.807 4.216-13.843-8.291v-13.001l13.842-8.29 16.806 4.216c.615.155 1.231.228 1.837.228 3.368 0 6.435-2.28 7.292-5.695 1.011-4.031-1.436-8.118-5.467-9.129l-2.211-.555 6.669-3.994c3.565-2.136 4.724-6.756 2.589-10.321-2.136-3.565-6.756-4.724-10.321-2.589l-6.699 4.012.542-2.164c1.011-4.031-1.436-8.118-5.467-9.129-4.033-1.016-8.118 1.436-9.129 5.467l-4.204 16.76-14.053 8.417-10.001-5.774v-16.28l12.252-12.252c2.938-2.939 2.938-7.703 0-10.642-2.939-2.937-7.703-2.937-10.642 0l-1.611 1.611v-7.772c0-4.156-3.368-7.524-7.524-7.524s-7.524 3.368-7.524 7.524v7.808l-1.577-1.578c-2.939-2.937-7.702-2.937-10.642 0-2.938 2.939-2.938 7.703 0 10.642l12.219 12.219v16.244l-9.967 5.754-14.02-8.397-4.205-16.76c-1.011-4.031-5.102-6.476-9.129-5.467-4.03 1.011-6.478 5.098-5.467 9.129l.543 2.163-6.698-4.011c-3.565-2.135-8.187-.976-10.321 2.589s-.976 8.186 2.589 10.321l6.669 3.994-2.211.555c-4.031 1.011-6.478 5.098-5.467 9.129.857 3.416 3.924 5.695 7.292 5.695.606 0 1.223-.073 1.837-.228l16.806-4.216 13.773 8.249v13.084l-13.774 8.249-16.807-4.216c-4.026-1.014-8.118 1.437-9.128 5.468-1.011 4.031 1.436 8.117 5.468 9.128l2.209.554-6.668 3.994c-3.565 2.136-4.724 6.756-2.589 10.321 1.41 2.354 3.904 3.659 6.462 3.659 1.316 0 2.648-.345 3.859-1.07l6.698-4.011-.543 2.163c-1.011 4.031 1.437 8.118 5.467 9.129.615.155 1.231.229 1.837.229 3.368 0 6.435-2.28 7.292-5.695l4.205-16.76 13.919-8.336 10.101 5.832v16.142l-12.252 12.252c-2.938 2.939-2.938 7.702 0 10.642 1.469 1.469 3.396 2.203 5.321 2.203s3.851-.735 5.321-2.203l1.611-1.611v7.772c0 4.156 3.368 7.524 7.524 7.524s7.524-3.368 7.524-7.524v-7.808l1.577 1.578c2.939 2.937 7.702 2.937 10.642 0 2.938-2.939 2.938-7.703 0-10.642l-12.219-12.219v-16.145l10.069-5.813 13.953 8.356 4.204 16.76c.857 3.417 3.923 5.695 7.292 5.695.606 0 1.223-.075 1.837-.229 4.031-1.011 6.478-5.097 5.467-9.129l-.542-2.163 6.699 4.012c1.211.725 2.543 1.07 3.859 1.07 2.558 0 5.052-1.305 6.462-3.659 2.136-3.566.977-8.186-2.588-10.322zm-64.267-17.592-10.451-6.034v-12.068l10.451-6.034 10.451 6.034v12.068z"/><path d="m508.341 445.461-11.556-6.921 6.565-1.647c4.031-1.011 6.479-5.097 5.468-9.128-1.011-4.033-5.104-6.485-9.128-5.468l-21.162 5.308-18.272-10.943v-17.729l18.273-10.944 21.16 5.308c.615.155 1.231.228 1.837.228 3.368-.001 6.436-2.28 7.292-5.695 1.011-4.031-1.436-8.118-5.467-9.129l-6.566-1.647 11.555-6.921c3.565-2.136 4.724-6.756 2.589-10.321-2.137-3.565-6.756-4.723-10.321-2.589l-11.591 6.942 1.633-6.507c1.011-4.031-1.436-8.118-5.467-9.129-4.035-1.015-8.118 1.436-9.129 5.467l-5.295 21.104-18.561 11.116-13.865-8.005v-21.496l15.427-15.426c2.939-2.938 2.939-7.703.001-10.641s-7.703-2.939-10.641-.001l-4.787 4.786v-13.47c0-4.156-3.368-7.524-7.524-7.524s-7.524 3.368-7.524 7.524v13.512l-4.745-4.745c-2.939-2.937-7.702-2.937-10.642 0-2.938 2.939-2.938 7.703 0 10.642l15.386 15.386v21.452l-13.824 7.981-18.52-11.092-5.295-21.104c-1.011-4.032-5.101-6.484-9.129-5.467-4.031 1.011-6.478 5.098-5.467 9.129l1.632 6.507-11.591-6.942c-3.565-2.134-8.186-.976-10.321 2.589s-.976 8.185 2.589 10.321l11.555 6.921-6.566 1.647c-4.031 1.011-6.478 5.098-5.467 9.129.857 3.416 3.924 5.695 7.292 5.695.606 0 1.222-.073 1.837-.228l21.161-5.308 18.19 10.894v17.829l-18.189 10.894-21.162-5.308c-4.028-1.014-8.118 1.436-9.128 5.468-1.011 4.031 1.436 8.117 5.468 9.128l6.565 1.647-11.555 6.921c-3.565 2.136-4.724 6.756-2.589 10.321 1.411 2.354 3.904 3.659 6.462 3.659 1.316 0 2.648-.345 3.859-1.07l11.591-6.942-1.632 6.507c-1.011 4.031 1.436 8.118 5.467 9.129.615.155 1.23.228 1.837.228 3.368 0 6.435-2.28 7.292-5.695l5.294-21.104 18.398-11.019 13.987 8.075v21.326l-15.428 15.428c-2.938 2.939-2.938 7.702 0 10.642 1.47 1.469 3.396 2.203 5.321 2.203s3.851-.735 5.321-2.203l4.786-4.786v13.469c0 4.156 3.368 7.524 7.524 7.524s7.524-3.368 7.524-7.524v-13.512l4.745 4.745c2.939 2.937 7.702 2.937 10.642 0 2.938-2.939 2.938-7.702 0-10.642l-15.386-15.386v-21.331l13.946-8.052 18.439 11.043 5.294 21.104c.857 3.416 3.923 5.695 7.292 5.695.606 0 1.223-.073 1.837-.228 4.031-1.011 6.478-5.098 5.467-9.129l-1.633-6.507 11.591 6.942c1.211.725 2.543 1.07 3.859 1.07 2.558 0 5.052-1.305 6.462-3.659 2.137-3.565.978-8.185-2.587-10.321zm-77.532-20.966-14.399-8.313v-16.626l14.399-8.313 14.398 8.313v16.626z"/></g></g></svg>